<mxfile host="app.diagrams.net" agent="Mozilla/5.0 (Windows NT 10.0; Win64; x64) AppleWebKit/537.36 (KHTML, like Gecko) Chrome/131.0.0.0 Safari/537.36" version="24.8.6">
  <diagram name="Сторінка-1" id="yEX0ATdlRDlXb6gueMOm">
    <mxGraphModel dx="1685" dy="965" grid="1" gridSize="10" guides="1" tooltips="1" connect="1" arrows="1" fold="1" page="1" pageScale="1" pageWidth="827" pageHeight="1169" math="0" shadow="0">
      <root>
        <mxCell id="0" />
        <mxCell id="1" parent="0" />
        <mxCell id="J6kf8Kumvzi9SYL_1Qqs-1" value="start" style="ellipse;whiteSpace=wrap;html=1;" vertex="1" parent="1">
          <mxGeometry x="354" y="20" width="120" height="80" as="geometry" />
        </mxCell>
        <mxCell id="J6kf8Kumvzi9SYL_1Qqs-13" style="edgeStyle=orthogonalEdgeStyle;rounded=0;orthogonalLoop=1;jettySize=auto;html=1;" edge="1" parent="1" source="J6kf8Kumvzi9SYL_1Qqs-2" target="J6kf8Kumvzi9SYL_1Qqs-3">
          <mxGeometry relative="1" as="geometry" />
        </mxCell>
        <mxCell id="J6kf8Kumvzi9SYL_1Qqs-2" value="&amp;nbsp;const double pricePerKg = 30.5;" style="rounded=0;whiteSpace=wrap;html=1;" vertex="1" parent="1">
          <mxGeometry x="360" y="160" width="120" height="60" as="geometry" />
        </mxCell>
        <mxCell id="J6kf8Kumvzi9SYL_1Qqs-14" style="edgeStyle=orthogonalEdgeStyle;rounded=0;orthogonalLoop=1;jettySize=auto;html=1;entryX=0.5;entryY=0;entryDx=0;entryDy=0;" edge="1" parent="1" source="J6kf8Kumvzi9SYL_1Qqs-3" target="J6kf8Kumvzi9SYL_1Qqs-4">
          <mxGeometry relative="1" as="geometry" />
        </mxCell>
        <mxCell id="J6kf8Kumvzi9SYL_1Qqs-3" value="&amp;nbsp;double weights[10];" style="rounded=0;whiteSpace=wrap;html=1;" vertex="1" parent="1">
          <mxGeometry x="360" y="300" width="120" height="60" as="geometry" />
        </mxCell>
        <mxCell id="J6kf8Kumvzi9SYL_1Qqs-11" style="edgeStyle=orthogonalEdgeStyle;rounded=0;orthogonalLoop=1;jettySize=auto;html=1;entryX=0.5;entryY=0;entryDx=0;entryDy=0;" edge="1" parent="1" source="J6kf8Kumvzi9SYL_1Qqs-4" target="J6kf8Kumvzi9SYL_1Qqs-5">
          <mxGeometry relative="1" as="geometry" />
        </mxCell>
        <mxCell id="J6kf8Kumvzi9SYL_1Qqs-4" value="start for" style="ellipse;whiteSpace=wrap;html=1;" vertex="1" parent="1">
          <mxGeometry x="360" y="410" width="120" height="80" as="geometry" />
        </mxCell>
        <mxCell id="J6kf8Kumvzi9SYL_1Qqs-8" style="edgeStyle=orthogonalEdgeStyle;rounded=0;orthogonalLoop=1;jettySize=auto;html=1;" edge="1" parent="1" source="J6kf8Kumvzi9SYL_1Qqs-5" target="J6kf8Kumvzi9SYL_1Qqs-9">
          <mxGeometry relative="1" as="geometry">
            <mxPoint x="430" y="830" as="targetPoint" />
            <Array as="points">
              <mxPoint x="550" y="600" />
              <mxPoint x="550" y="601" />
              <mxPoint x="700" y="601" />
              <mxPoint x="700" y="830" />
            </Array>
          </mxGeometry>
        </mxCell>
        <mxCell id="J6kf8Kumvzi9SYL_1Qqs-10" style="edgeStyle=orthogonalEdgeStyle;rounded=0;orthogonalLoop=1;jettySize=auto;html=1;" edge="1" parent="1" source="J6kf8Kumvzi9SYL_1Qqs-5" target="J6kf8Kumvzi9SYL_1Qqs-6">
          <mxGeometry relative="1" as="geometry" />
        </mxCell>
        <mxCell id="J6kf8Kumvzi9SYL_1Qqs-5" value="int i = 0; i &amp;lt; 10; i++" style="rhombus;whiteSpace=wrap;html=1;" vertex="1" parent="1">
          <mxGeometry x="380" y="560" width="80" height="80" as="geometry" />
        </mxCell>
        <mxCell id="J6kf8Kumvzi9SYL_1Qqs-7" style="edgeStyle=orthogonalEdgeStyle;rounded=0;orthogonalLoop=1;jettySize=auto;html=1;entryX=0;entryY=0.5;entryDx=0;entryDy=0;" edge="1" parent="1" source="J6kf8Kumvzi9SYL_1Qqs-6" target="J6kf8Kumvzi9SYL_1Qqs-5">
          <mxGeometry relative="1" as="geometry">
            <mxPoint x="280" y="590" as="targetPoint" />
            <Array as="points">
              <mxPoint x="281" y="730" />
              <mxPoint x="281" y="600" />
            </Array>
          </mxGeometry>
        </mxCell>
        <mxCell id="J6kf8Kumvzi9SYL_1Qqs-6" value="weights[i] = (i + 1) * 0.1;" style="rounded=0;whiteSpace=wrap;html=1;" vertex="1" parent="1">
          <mxGeometry x="354" y="700" width="120" height="60" as="geometry" />
        </mxCell>
        <mxCell id="J6kf8Kumvzi9SYL_1Qqs-26" style="edgeStyle=orthogonalEdgeStyle;rounded=0;orthogonalLoop=1;jettySize=auto;html=1;" edge="1" parent="1" source="J6kf8Kumvzi9SYL_1Qqs-9" target="J6kf8Kumvzi9SYL_1Qqs-15">
          <mxGeometry relative="1" as="geometry" />
        </mxCell>
        <mxCell id="J6kf8Kumvzi9SYL_1Qqs-9" value="end for" style="ellipse;whiteSpace=wrap;html=1;" vertex="1" parent="1">
          <mxGeometry x="370" y="790" width="120" height="80" as="geometry" />
        </mxCell>
        <mxCell id="J6kf8Kumvzi9SYL_1Qqs-12" style="edgeStyle=orthogonalEdgeStyle;rounded=0;orthogonalLoop=1;jettySize=auto;html=1;entryX=0.425;entryY=0.033;entryDx=0;entryDy=0;entryPerimeter=0;" edge="1" parent="1" source="J6kf8Kumvzi9SYL_1Qqs-1" target="J6kf8Kumvzi9SYL_1Qqs-2">
          <mxGeometry relative="1" as="geometry" />
        </mxCell>
        <mxCell id="J6kf8Kumvzi9SYL_1Qqs-27" style="edgeStyle=orthogonalEdgeStyle;rounded=0;orthogonalLoop=1;jettySize=auto;html=1;" edge="1" parent="1" source="J6kf8Kumvzi9SYL_1Qqs-15" target="J6kf8Kumvzi9SYL_1Qqs-16">
          <mxGeometry relative="1" as="geometry" />
        </mxCell>
        <mxCell id="J6kf8Kumvzi9SYL_1Qqs-15" value="ofstream fout(&quot;result4.txt&quot;);" style="rounded=0;whiteSpace=wrap;html=1;" vertex="1" parent="1">
          <mxGeometry x="370" y="930" width="120" height="60" as="geometry" />
        </mxCell>
        <mxCell id="J6kf8Kumvzi9SYL_1Qqs-28" style="edgeStyle=orthogonalEdgeStyle;rounded=0;orthogonalLoop=1;jettySize=auto;html=1;" edge="1" parent="1" source="J6kf8Kumvzi9SYL_1Qqs-16" target="J6kf8Kumvzi9SYL_1Qqs-17">
          <mxGeometry relative="1" as="geometry" />
        </mxCell>
        <mxCell id="J6kf8Kumvzi9SYL_1Qqs-16" value="fout &amp;lt;&amp;lt; setw(10) &amp;lt;&amp;lt; &quot;Вага (кг)&quot; &amp;lt;&amp;lt; setw(20) &amp;lt;&amp;lt; &quot;Ціна (грн)&quot; &amp;lt;&amp;lt; endl;" style="rounded=0;whiteSpace=wrap;html=1;" vertex="1" parent="1">
          <mxGeometry x="370" y="1050" width="120" height="60" as="geometry" />
        </mxCell>
        <mxCell id="J6kf8Kumvzi9SYL_1Qqs-29" style="edgeStyle=orthogonalEdgeStyle;rounded=0;orthogonalLoop=1;jettySize=auto;html=1;" edge="1" parent="1" source="J6kf8Kumvzi9SYL_1Qqs-17" target="J6kf8Kumvzi9SYL_1Qqs-19">
          <mxGeometry relative="1" as="geometry" />
        </mxCell>
        <mxCell id="J6kf8Kumvzi9SYL_1Qqs-17" value="&amp;nbsp;fout &amp;lt;&amp;lt; fixed &amp;lt;&amp;lt; setprecision(2);" style="rounded=0;whiteSpace=wrap;html=1;" vertex="1" parent="1">
          <mxGeometry x="370" y="1180" width="120" height="60" as="geometry" />
        </mxCell>
        <mxCell id="J6kf8Kumvzi9SYL_1Qqs-18" style="edgeStyle=orthogonalEdgeStyle;rounded=0;orthogonalLoop=1;jettySize=auto;html=1;entryX=0.5;entryY=0;entryDx=0;entryDy=0;" edge="1" parent="1" source="J6kf8Kumvzi9SYL_1Qqs-19" target="J6kf8Kumvzi9SYL_1Qqs-22">
          <mxGeometry relative="1" as="geometry" />
        </mxCell>
        <mxCell id="J6kf8Kumvzi9SYL_1Qqs-19" value="start for" style="ellipse;whiteSpace=wrap;html=1;" vertex="1" parent="1">
          <mxGeometry x="370" y="1320" width="120" height="80" as="geometry" />
        </mxCell>
        <mxCell id="J6kf8Kumvzi9SYL_1Qqs-20" style="edgeStyle=orthogonalEdgeStyle;rounded=0;orthogonalLoop=1;jettySize=auto;html=1;" edge="1" parent="1" source="J6kf8Kumvzi9SYL_1Qqs-22" target="J6kf8Kumvzi9SYL_1Qqs-25">
          <mxGeometry relative="1" as="geometry">
            <mxPoint x="440" y="1740" as="targetPoint" />
            <Array as="points">
              <mxPoint x="560" y="1510" />
              <mxPoint x="560" y="1511" />
              <mxPoint x="710" y="1511" />
              <mxPoint x="710" y="1740" />
            </Array>
          </mxGeometry>
        </mxCell>
        <mxCell id="J6kf8Kumvzi9SYL_1Qqs-21" style="edgeStyle=orthogonalEdgeStyle;rounded=0;orthogonalLoop=1;jettySize=auto;html=1;" edge="1" parent="1" source="J6kf8Kumvzi9SYL_1Qqs-22" target="J6kf8Kumvzi9SYL_1Qqs-24">
          <mxGeometry relative="1" as="geometry" />
        </mxCell>
        <mxCell id="J6kf8Kumvzi9SYL_1Qqs-22" value="int i = 0; i &amp;lt; 10; i++" style="rhombus;whiteSpace=wrap;html=1;" vertex="1" parent="1">
          <mxGeometry x="390" y="1470" width="80" height="80" as="geometry" />
        </mxCell>
        <mxCell id="J6kf8Kumvzi9SYL_1Qqs-23" style="edgeStyle=orthogonalEdgeStyle;rounded=0;orthogonalLoop=1;jettySize=auto;html=1;entryX=0;entryY=0.5;entryDx=0;entryDy=0;" edge="1" parent="1" source="J6kf8Kumvzi9SYL_1Qqs-24" target="J6kf8Kumvzi9SYL_1Qqs-22">
          <mxGeometry relative="1" as="geometry">
            <mxPoint x="290" y="1500" as="targetPoint" />
            <Array as="points">
              <mxPoint x="291" y="1640" />
              <mxPoint x="291" y="1510" />
            </Array>
          </mxGeometry>
        </mxCell>
        <mxCell id="J6kf8Kumvzi9SYL_1Qqs-24" value="fout &amp;lt;&amp;lt; setw(10) &amp;lt;&amp;lt; weights[i] &amp;lt;&amp;lt; setw(20) &amp;lt;&amp;lt; weights[i] * pricePerKg &amp;lt;&amp;lt; endl;" style="rounded=0;whiteSpace=wrap;html=1;" vertex="1" parent="1">
          <mxGeometry x="364" y="1610" width="120" height="60" as="geometry" />
        </mxCell>
        <mxCell id="J6kf8Kumvzi9SYL_1Qqs-32" style="edgeStyle=orthogonalEdgeStyle;rounded=0;orthogonalLoop=1;jettySize=auto;html=1;entryX=0.5;entryY=0;entryDx=0;entryDy=0;" edge="1" parent="1" source="J6kf8Kumvzi9SYL_1Qqs-25" target="J6kf8Kumvzi9SYL_1Qqs-30">
          <mxGeometry relative="1" as="geometry" />
        </mxCell>
        <mxCell id="J6kf8Kumvzi9SYL_1Qqs-25" value="end for" style="ellipse;whiteSpace=wrap;html=1;" vertex="1" parent="1">
          <mxGeometry x="380" y="1700" width="120" height="80" as="geometry" />
        </mxCell>
        <mxCell id="J6kf8Kumvzi9SYL_1Qqs-33" style="edgeStyle=orthogonalEdgeStyle;rounded=0;orthogonalLoop=1;jettySize=auto;html=1;" edge="1" parent="1" source="J6kf8Kumvzi9SYL_1Qqs-30" target="J6kf8Kumvzi9SYL_1Qqs-31">
          <mxGeometry relative="1" as="geometry" />
        </mxCell>
        <mxCell id="J6kf8Kumvzi9SYL_1Qqs-30" value="&amp;nbsp;fout.close();" style="rounded=0;whiteSpace=wrap;html=1;" vertex="1" parent="1">
          <mxGeometry x="380" y="1830" width="120" height="60" as="geometry" />
        </mxCell>
        <mxCell id="J6kf8Kumvzi9SYL_1Qqs-35" style="edgeStyle=orthogonalEdgeStyle;rounded=0;orthogonalLoop=1;jettySize=auto;html=1;" edge="1" parent="1" source="J6kf8Kumvzi9SYL_1Qqs-31" target="J6kf8Kumvzi9SYL_1Qqs-34">
          <mxGeometry relative="1" as="geometry" />
        </mxCell>
        <mxCell id="J6kf8Kumvzi9SYL_1Qqs-31" value="cout &amp;lt;&amp;lt; &quot;Таблицю записано у файл result4.txt&quot; &amp;lt;&amp;lt; endl;" style="shape=parallelogram;perimeter=parallelogramPerimeter;whiteSpace=wrap;html=1;fixedSize=1;" vertex="1" parent="1">
          <mxGeometry x="370" y="1960" width="120" height="60" as="geometry" />
        </mxCell>
        <mxCell id="J6kf8Kumvzi9SYL_1Qqs-34" value="end" style="ellipse;whiteSpace=wrap;html=1;" vertex="1" parent="1">
          <mxGeometry x="370" y="2100" width="120" height="80" as="geometry" />
        </mxCell>
      </root>
    </mxGraphModel>
  </diagram>
</mxfile>
